<svg viewBox="0 0 512 512" xmlns="http://www.w3.org/2000/svg" xmlns:xlink="http://www.w3.org/1999/xlink"><linearGradient id="a" gradientTransform="matrix(1 0 0 -1 0 -6826)" gradientUnits="userSpaceOnUse" x1="0" x2="512" y1="-7082" y2="-7082"><stop offset="0" stop-color="#31d8ff"/><stop offset="1" stop-color="#FC5C7D"/></linearGradient><path d="m512 256c0 141.386719-114.613281 256-256 256s-256-114.613281-256-256 114.613281-256 256-256 256 114.613281 256 256zm0 0" fill="url(#a)"/><path d="m175 395.246094c-4.035156 0-7.902344-1.628906-10.726562-4.511719l-81-82.832031c-5.789063-5.921875-5.683594-15.417969.238281-21.210938 5.921875-5.792968 15.417969-5.6875 21.210937.238282l70.273438 71.859374 232.277344-237.523437c5.792968-5.921875 15.289062-6.027344 21.210937-.234375 5.925781 5.789062 6.03125 15.289062.238281 21.210938l-243 248.492187c-2.820312 2.882813-6.6875 4.511719-10.722656 4.511719zm0 0" fill="#fff"/></svg>