<svg xmlns="http://www.w3.org/2000/svg" xmlns:xlink="http://www.w3.org/1999/xlink" id="Layer_1" x="0" y="0" version="1.1" viewBox="0 0 200 200" xml:space="preserve" style="enable-background:new 0 0 200 200"><style type="text/css">.st0{clip-path:url(#SVGID_2_)}.st1{fill:#e62c28}.st2{fill:#e94845}.st3{fill:#fdfcfc}.st4{fill:#e62d29}</style><switch><g><g><defs><circle id="SVGID_1_" cx="100" cy="100" r="100"/></defs><clipPath id="SVGID_2_"><use xlink:href="#SVGID_1_" style="overflow:visible"/></clipPath><g class="st0"><path d="M202.7,195.2c0,0.3-0.1,0.8-0.1,1.1c-1.5,3-3.7,5.3-6.9,6.4c-0.2,0-0.4,0-0.6,0.1c-0.8-0.1-1.6-0.4-2.3-0.4 c-61,0-122.1,0-183.1,0c-0.7,0-1.4,0.3-2.1,0.4c-0.3,0-0.7-0.1-1-0.1c-3-1.4-5.2-3.6-6.5-6.6V6.7c1.3-3.1,3.5-5.3,6.6-6.7 C6.8,0,7,0,7.2,0c0.9,0.1,1.7,0.4,2.6,0.4c61,0,122.1,0,183.1,0c0.8,0,1.5-0.2,2.3-0.4c0.2,0,0.4,0,0.5,0c3.4,1.2,5.7,3.5,6.9,7 c0,0.1,0,0.4,0,0.5c-0.1,0.7-0.4,1.4-0.4,2.1c0,61.2,0,122.3,0,183.5C202.3,193.8,202.6,194.5,202.7,195.2z M52.3,178.7 c0.9,0,1.6,0,2.3,0c11.3,0,22.6,0.1,33.8,0c2.9,0,6-0.3,8.8-0.9c15.9-3.4,26.8-12.6,30.8-28.7c1.8-7.3,2.8-14.9,4.1-22.3 c5.5-31.1,11-62.2,16.4-93.2c0.5-3.1,1.1-6.1,1.6-9.4c-1,0-1.8,0-2.5,0c-13.4,0-26.8-0.1-40.2,0c-2.9,0-6,0.3-8.8,0.9 C82,28.6,71.1,38.5,67.6,55.6c-2.1,10-3.7,20.1-5.4,30.1c-1.2,6.9-2.6,13.9-3.2,20.9c-0.9,10.1,2.7,18.4,11.9,23.6 c3.9,2.2,8.2,3.7,12.7,3.9c7.7,0.3,15.4,0.3,23.1,0.4c0.7,0,1.4,0,2.2,0c-0.7,3.6-1.3,6.8-1.9,10c-1.6,8.3-6.1,12.1-14.5,12.1 c-11.3,0-22.6,0-33.8,0c-0.8,0-1.5,0-2.3,0C54.9,164.1,53.7,171.2,52.3,178.7z" class="st1"/><path d="M195.2,0c-0.8,0.1-1.5,0.4-2.3,0.4c-61,0-122.1,0-183.1,0C9,0.4,8.3,0.1,7.5,0C70.1,0,132.6,0,195.2,0z" class="st2"/><path d="M202.7,195.2c-0.1-0.7-0.4-1.4-0.4-2.1c0-61.2,0-122.3,0-183.5c0-0.7,0.2-1.4,0.4-2.1 C202.7,70.1,202.7,132.6,202.7,195.2z" class="st2"/><path d="M7.5,202.7c0.7-0.1,1.4-0.4,2.1-0.4c61,0,122.1,0,183.1,0c0.7,0,1.4,0.3,2.1,0.4 C132.4,202.7,69.9,202.7,7.5,202.7z" class="st2"/><path d="M202.7,7.1c-1.2-3.5-3.6-5.9-7.1-7.1h7.1V7.1z" class="st3"/><path d="M195.6,202.7c3.4-1.2,5.7-3.5,7.1-6.7v6.7H195.6z" class="st3"/><path d="M0,196c1.3,3.1,3.6,5.3,6.7,6.7H0V196z" class="st3"/><path d="M6.7,0C3.6,1.4,1.3,3.6,0,6.7V0H6.7z" class="st3"/><path d="M52.3,178.7c1.3-7.4,2.6-14.6,4-22c0.8,0,1.6,0,2.3,0c11.3,0,22.6,0,33.8,0c8.4,0,12.9-3.8,14.5-12.1 c0.6-3.2,1.2-6.5,1.9-10c-0.8,0-1.5,0-2.2,0c-7.7-0.1-15.4,0-23.1-0.4c-4.5-0.2-8.8-1.7-12.7-3.9c-9.2-5.2-12.8-13.5-11.9-23.6 c0.6-7,2-13.9,3.2-20.9c1.7-10.1,3.4-20.2,5.4-30.1C71.1,38.5,82,28.6,98.8,25c2.9-0.6,5.9-0.9,8.8-0.9c13.4-0.1,26.8,0,40.2,0 c0.7,0,1.4,0,2.5,0c-0.6,3.3-1.1,6.3-1.6,9.4c-5.5,31.1-11,62.2-16.4,93.2c-1.3,7.5-2.3,15-4.1,22.3 c-4,16.1-14.9,25.3-30.8,28.7c-2.9,0.6-5.9,0.9-8.8,0.9c-11.3,0.1-22.6,0-33.8,0C53.9,178.7,53.2,178.7,52.3,178.7z M112.7,112.4c1.2-6.8,2.4-13.4,3.5-20c2.1-12.1,4.3-24.3,6.3-36.4c0.8-4.6-1.4-8-5.9-9.3c-1.3-0.4-2.7-0.5-4.1-0.5 c-3-0.1-5.9,0-8.9,0c-8.2,0-13.2,4.4-14.5,12.4c-0.8,4.9-1.7,9.7-2.6,14.6c-1.7,9.6-3.5,19.2-5,28.8c-0.9,6,2.1,10,8.2,10.3 C97.3,112.6,104.9,112.4,112.7,112.4z" class="st3"/><path d="M112.7,112.4c-7.8,0-15.3,0.3-22.9-0.1c-6.1-0.3-9.2-4.3-8.2-10.3c1.5-9.6,3.3-19.2,5-28.8 c0.8-4.9,1.8-9.7,2.6-14.6c1.3-8,6.3-12.4,14.5-12.4c3,0,5.9-0.1,8.9,0c1.4,0,2.8,0.2,4.1,0.5c4.5,1.3,6.7,4.7,5.9,9.3 c-2.1,12.1-4.2,24.3-6.3,36.4C115,98.9,113.9,105.5,112.7,112.4z" class="st4"/></g></g></g></switch></svg>