<svg xmlns="http://www.w3.org/2000/svg" xmlns:xlink="http://www.w3.org/1999/xlink" id="Layer_1" width="64" height="64" x="0" y="0" version="1.1" viewBox="0 0 64 64" xml:space="preserve"><path fill="#3E77BF" d="M31.999 1.646C14.881 1.646 1 15.579 1 32.771c0 13.749 8.881 25.415 21.204 29.53 1.549.287 2.114-.674 2.114-1.5 0-.738-.027-2.695-.042-5.293-8.625 1.883-10.444-4.172-10.444-4.172-1.408-3.596-3.44-4.551-3.44-4.551-2.816-1.932.212-1.895.212-1.895 3.11.219 4.747 3.209 4.747 3.209 2.768 4.756 7.258 3.381 9.024 2.584.279-2.01 1.082-3.383 1.967-4.16-6.882-.787-14.118-3.455-14.118-15.38 0-3.397 1.207-6.176 3.19-8.354-.321-.787-1.384-3.95.302-8.234 0 0 2.604-.836 8.525 3.19 2.473-.69 5.125-1.035 7.762-1.049 2.631.014 5.285.358 7.762 1.049 5.916-4.026 8.516-3.19 8.516-3.19 1.69 4.284.627 7.447.307 8.234 1.988 2.178 3.188 4.956 3.188 8.354 0 11.955-7.248 14.585-14.154 15.357 1.113.961 2.104 2.859 2.104 5.764 0 4.162-.037 7.516-.037 8.537 0 .834.559 1.803 2.131 1.496C54.127 58.174 63 46.516 63 32.771 63 15.579 49.119 1.646 31.999 1.646z"/><path fill="#3E77BF" d="M31.999 1.646C14.881 1.646 1 15.579 1 32.771c0 13.749 8.881 25.415 21.204 29.53 1.549.287 2.114-.674 2.114-1.5 0-.738-.027-2.695-.042-5.293-8.625 1.883-10.444-4.172-10.444-4.172-1.408-3.596-3.44-4.551-3.44-4.551-2.816-1.932.212-1.895.212-1.895 3.11.219 4.747 3.209 4.747 3.209 2.768 4.756 7.258 3.381 9.024 2.584.279-2.01 1.082-3.383 1.967-4.16-6.882-.787-14.118-3.455-14.118-15.38 0-3.397 1.207-6.176 3.19-8.354-.321-.787-1.384-3.95.302-8.234 0 0 2.604-.836 8.525 3.19 2.473-.69 5.125-1.035 7.762-1.049 2.631.014 5.285.358 7.762 1.049 5.916-4.026 8.516-3.19 8.516-3.19 1.69 4.284.627 7.447.307 8.234 1.988 2.178 3.188 4.956 3.188 8.354 0 11.955-7.248 14.585-14.154 15.357 1.113.961 2.104 2.859 2.104 5.764 0 4.162-.037 7.516-.037 8.537 0 .834.559 1.803 2.131 1.496C54.127 58.174 63 46.516 63 32.771 63 15.579 49.119 1.646 31.999 1.646z"/><path fill="#114C82" d="M48.312 14.642c1.641 4.238.594 7.366.275 8.147 1.988 2.178 3.188 4.956 3.188 8.354 0 11.955-7.248 14.585-14.154 15.357 1.113.961 2.104 2.859 2.104 5.764 0 4.162-.037 7.516-.037 8.537 0 .834.559 1.803 2.131 1.496C54.127 58.174 63 46.516 63 32.771c0-3.695-.644-7.237-1.821-10.525-4.274-4.5-9.031-7.497-12.867-7.604z"/><path fill="#114C82" d="M25.122 48.166c.348-.702.773-1.248 1.22-1.643-3.772-.432-7.646-1.439-10.381-4.218 2.104 3.502 5.53 5.095 9.161 5.861z"/><path fill="#6CA9EA" d="M2.614 34.869c0-17.192 13.881-31.125 30.999-31.125 9.505 0 18.007 4.299 23.692 11.061C51.69 6.845 42.452 1.646 31.999 1.646 14.881 1.646 1 15.579 1 32.771A31.04 31.04 0 0 0 8.344 52.87a31.03 31.03 0 0 1-5.73-18.001z"/><path fill="#083E66" d="M41.339 54.363c0-2.904-.991-4.805-2.104-5.766 6.906-.77 14.155-3.402 14.155-15.356 0-3.398-1.2-6.175-3.19-8.353.322-.787 1.387-3.951-.307-8.234 0 0-.322-.099-.987-.061.726 3.23-.052 5.54-.319 6.196 1.988 2.178 3.188 4.956 3.188 8.354 0 11.955-7.248 14.585-14.154 15.357 1.113.961 2.104 2.859 2.104 5.764 0 4.162-.037 7.516-.037 8.537 0 .734.437 1.571 1.615 1.551.008-1.407.036-4.394.036-7.989z"/><path fill="#114C82" d="M15.683 54c.651 1.34 2.839 4.55 8.611 3.874-.008-.706-.014-1.497-.018-2.366-4.453.972-7.082-.174-8.593-1.508z"/><path fill="#6CA9EA" d="M16.796 49.924a7.655 7.655 0 0 0-1.113-1.318c.351.521.724.958 1.113 1.318z"/><metadata><rdf:RDF xmlns:dc="http://purl.org/dc/elements/1.1/" xmlns:rdf="http://www.w3.org/1999/02/22-rdf-syntax-ns#" xmlns:rdfs="http://www.w3.org/2000/01/rdf-schema#"><rdf:Description about="https://iconscout.com/legal#licenses" dc:date="2018-01-30" dc:description="github" dc:format="image/svg+xml" dc:language="en" dc:publisher="Iconscout" dc:title="github"><dc:creator><rdf:Bag><rdf:li>Roundicons.com</rdf:li></rdf:Bag></dc:creator></rdf:Description></rdf:RDF></metadata></svg>