<?xml version="1.0" encoding="iso-8859-1"?>
<!-- Generator: Adobe Illustrator 19.0.0, SVG Export Plug-In . SVG Version: 6.00 Build 0)  -->
<svg version="1.1" id="Layer_1" xmlns="http://www.w3.org/2000/svg" xmlns:xlink="http://www.w3.org/1999/xlink" x="0px" y="0px"
	 viewBox="0 0 512 512" style="enable-background:new 0 0 512 512;" xml:space="preserve">
<g>
	<g>
		<path d="M468.662,212.66H147.974l52.851-52.851c16.896-16.897,16.897-44.393,0-61.293c-8.187-8.186-19.07-12.694-30.647-12.694
			c-11.576,0-22.46,4.508-30.646,12.694L12.697,225.351C4.509,233.536,0,244.42,0,256s4.509,22.465,12.695,30.647l126.837,126.839
			c8.186,8.185,19.069,12.693,30.646,12.693c11.577,0,22.462-4.508,30.646-12.694c8.179-8.177,12.683-19.06,12.683-30.647
			s-4.504-22.47-12.682-30.647l-52.851-52.851h320.687C492.557,299.341,512,279.898,512,256S492.558,212.659,468.662,212.66z
			 M468.659,278.942h-345.31c-4.126,0-7.844,2.486-9.422,6.296c-1.579,3.811-0.706,8.198,2.21,11.115l70.264,70.263
			c4.324,4.324,6.706,10.086,6.706,16.222c0,6.136-2.382,11.897-6.706,16.222H186.4c-4.333,4.333-10.093,6.719-16.222,6.719
			c-6.128,0-11.889-2.387-16.222-6.719L27.118,272.221c-4.333-4.332-6.719-10.092-6.719-16.221s2.387-11.889,6.721-16.222
			L153.957,112.94c4.334-4.334,10.093-6.72,16.221-6.72s11.89,2.387,16.223,6.718c8.945,8.947,8.945,23.501,0,32.446l-70.263,70.263
			c-2.916,2.917-3.789,7.304-2.21,11.115c1.578,3.81,5.296,6.296,9.422,6.296h345.311c12.649,0,22.941,10.291,22.941,22.942
			S481.31,278.943,468.659,278.942z"/>
	</g>
</g>
<g>
	<g>
		<path d="M124.477,326.835l-2.022-2.023c-3.985-3.982-10.441-3.982-14.425,0c-3.983,3.984-3.983,10.442,0,14.425l2.023,2.023
			c1.992,1.991,4.601,2.987,7.212,2.987c2.61,0,5.22-0.996,7.213-2.987C128.46,337.275,128.46,330.817,124.477,326.835z"/>
	</g>
</g>
<g>
	<g>
		<path d="M102.707,305.064L49.431,251.79c-3.985-3.982-10.441-3.982-14.425,0c-3.983,3.984-3.983,10.442,0,14.425l53.276,53.275
			c1.992,1.991,4.601,2.987,7.212,2.987c2.61,0,5.22-0.995,7.213-2.987C106.69,315.505,106.69,309.047,102.707,305.064z"/>
	</g>
</g>
<g>
</g>
<g>
</g>
<g>
</g>
<g>
</g>
<g>
</g>
<g>
</g>
<g>
</g>
<g>
</g>
<g>
</g>
<g>
</g>
<g>
</g>
<g>
</g>
<g>
</g>
<g>
</g>
<g>
</g>
</svg>
