<svg xmlns="http://www.w3.org/2000/svg" xmlns:xlink="http://www.w3.org/1999/xlink" id="reg" x="0" y="0" version="1.1" viewBox="0 0 512 512" xml:space="preserve" style="enable-background:new 0 0 512 512"><style type="text/css">.st0{fill:url(#SVGID_1_)}.st1{fill:url(#SVGID_2_)}.st2,.st3{stroke:#000;stroke-width:.75;stroke-miterlimit:10}.st3{fill:none;stroke-width:6}</style><switch><g><linearGradient id="SVGID_1_" x1="74.981" x2="437.019" y1="437.019" y2="74.981" gradientUnits="userSpaceOnUse"><stop offset="0" style="stop-color:#736bfd"/><stop offset="1" style="stop-color:#f54187"/></linearGradient><circle cx="256" cy="256" r="256" class="st0"/><path d="M377,356.7c-68.9-45.4-155.6-56.4-257.6-32.7c-20.5,4.8-13.6,35.8,7.3,31.2C290.7,317,351.6,386,368.2,386 C384,386,390.2,365.4,377,356.7z"/><path d="M112.1,275.1C203.9,253.4,308.1,266,384,308c18.5,10.2,34-17.8,15.5-28c-82.7-45.7-195.6-59.5-294.7-36 C84.2,248.8,91.5,280,112.1,275.1L112.1,275.1z"/><path d="M100,191.9c96.6-29.6,232.2-13.4,308.7,36.9c17.6,11.5,35.3-15.1,17.6-26.7c-84.9-55.8-229.2-73.3-335.6-40.8 C70.4,167.5,79.9,198.1,100,191.9L100,191.9z"/><linearGradient id="SVGID_2_" x1="487.832" x2="384.197" y1="386.374" y2="490.009" gradientUnits="userSpaceOnUse"><stop offset="0" style="stop-color:#736bfd"/><stop offset="1" style="stop-color:#f54187"/></linearGradient><path d="M507.8,438.2c-1.6,97.2-141.9,97.1-143.5,0C365.9,341,506.2,341,507.8,438.2z" class="st1"/><g><g><path d="M486.8,456.8c-0.6-2.4-6.9-1-8.5-1.4c11.5-82-82.4-86.7-87.1-22.2c0.3,1.8-1,6.7,2.2,6.6c0,0,8.6,0,8.6,0 c3.1,0.1,2-4.7,2.2-6.6c0.1-23.3,35-23.3,35.2,0c0,0,0,6.9,0,6.9c-0.1,2.8,4.4,2.8,4.3,0c5-35.2-43.8-40.1-43.8-4.7h-4.3 c-1.6-53.7,77.2-55.9,78.4-2.2c0,0,0,24.4,0,24.4c-0.1,2.9,3.8,2.1,5.6,2.2l-20.7,21l-20.7-21c1.8-0.1,5.6,0.7,5.6-2.2 c0,0,0-8.8,0-8.8c0-2.8-4.4-2.8-4.3,0c0,0,0,6.6,0,6.6c-2.2,0.2-11.3-1.3-8,3.7c0,0,25.9,26.3,25.9,26.3c0.8,0.9,2.2,0.9,3.1,0 C460.6,484.4,489.4,458.3,486.8,456.8z" class="st2"/></g></g><path d="M510,437.5c-1.7,96.2-142.1,96.2-143.8,0C367.9,341.3,508.4,341.3,510,437.5z" class="st3"/></g></switch></svg>