<svg xmlns="http://www.w3.org/2000/svg" xmlns:xlink="http://www.w3.org/1999/xlink" width="640" height="407.36"><rect width="640" height="407.36" rx="5" ry="5" class="a"/><svg y="0%" x="0%"><circle cx="20" cy="20" r="6" fill="#ff5f58"/><circle cx="40" cy="20" r="6" fill="#ffbd2e"/><circle cx="60" cy="20" r="6" fill="#18c132"/></svg><svg height="347.36" viewBox="0 0 60 34.736" width="600" x="15" xmlns="http://www.w3.org/2000/svg" xmlns:xlink="http://www.w3.org/1999/xlink" y="50"><style>@keyframes h{0%{transform:translateX(0)}3.8%{transform:translateX(-60px)}7.5%{transform:translateX(-120px)}11.2%{transform:translateX(-180px)}14.2%{transform:translateX(-240px)}17.9%{transform:translateX(-300px)}21.6%{transform:translateX(-360px)}25.3%{transform:translateX(-420px)}29%{transform:translateX(-480px)}31.9%{transform:translateX(-540px)}35.7%{transform:translateX(-600px)}39.5%{transform:translateX(-660px)}43.3%{transform:translateX(-720px)}46.3%{transform:translateX(-780px)}49.9%{transform:translateX(-840px)}53.8%{transform:translateX(-900px)}57.6%{transform:translateX(-960px)}60.5%{transform:translateX(-1020px)}64.2%{transform:translateX(-1080px)}68%{transform:translateX(-1140px)}71.7%{transform:translateX(-1200px)}to{transform:translateX(-1260px)}}.a{fill:#282d35}.f{fill:#b9c0cb;white-space:pre}</style><g font-family="Monaco,Consolas,Menlo,'Bitstream Vera Sans Mono','Powerline Symbols',monospace" font-size="1.67"><defs><symbol id="1"><text y="1.67" class="f">The</text><text x="4.008" y="1.67" class="f">count</text><text x="10.02" y="1.67" class="f">is:</text><text x="14.028" y="1.67" class="f">20</text></symbol><symbol id="a"><path fill="transparent" d="M0 0h60v17H0z"/></symbol></defs><path class="a" d="M0 0h60v34.736H0z"/><g style="animation-duration:7.115477s;animation-iteration-count:infinite;animation-name:h;animation-timing-function:steps(1,end)"><svg width="1320"><svg><use xlink:href="#a"/><text y="1.67" class="f">The</text><text x="4.008" y="1.67" class="f">count</text><text x="10.02" y="1.67" class="f">is:</text><text x="14.028" y="1.67" class="f">0</text></svg><svg x="60"><use xlink:href="#a"/><text y="1.67" class="f">The</text><text x="4.008" y="1.67" class="f">count</text><text x="10.02" y="1.67" class="f">is:</text><text x="14.028" y="1.67" class="f">1</text></svg><svg x="120"><use xlink:href="#a"/><text y="1.67" class="f">The</text><text x="4.008" y="1.67" class="f">count</text><text x="10.02" y="1.67" class="f">is:</text><text x="14.028" y="1.67" class="f">2</text></svg><svg x="180"><use xlink:href="#a"/><text y="1.67" class="f">The</text><text x="4.008" y="1.67" class="f">count</text><text x="10.02" y="1.67" class="f">is:</text><text x="14.028" y="1.67" class="f">3</text></svg><svg x="240"><use xlink:href="#a"/><text y="1.67" class="f">The</text><text x="4.008" y="1.67" class="f">count</text><text x="10.02" y="1.67" class="f">is:</text><text x="14.028" y="1.67" class="f">4</text></svg><svg x="300"><use xlink:href="#a"/><text y="1.67" class="f">The</text><text x="4.008" y="1.67" class="f">count</text><text x="10.02" y="1.67" class="f">is:</text><text x="14.028" y="1.67" class="f">5</text></svg><svg x="360"><use xlink:href="#a"/><text y="1.67" class="f">The</text><text x="4.008" y="1.67" class="f">count</text><text x="10.02" y="1.67" class="f">is:</text><text x="14.028" y="1.67" class="f">6</text></svg><svg x="420"><use xlink:href="#a"/><text y="1.67" class="f">The</text><text x="4.008" y="1.67" class="f">count</text><text x="10.02" y="1.67" class="f">is:</text><text x="14.028" y="1.67" class="f">7</text></svg><svg x="480"><use xlink:href="#a"/><text y="1.67" class="f">The</text><text x="4.008" y="1.67" class="f">count</text><text x="10.02" y="1.67" class="f">is:</text><text x="14.028" y="1.67" class="f">8</text></svg><svg x="540"><use xlink:href="#a"/><text y="1.67" class="f">The</text><text x="4.008" y="1.67" class="f">count</text><text x="10.02" y="1.67" class="f">is:</text><text x="14.028" y="1.67" class="f">9</text></svg><svg x="600"><use xlink:href="#a"/><text y="1.67" class="f">The</text><text x="4.008" y="1.67" class="f">count</text><text x="10.02" y="1.67" class="f">is:</text><text x="14.028" y="1.67" class="f">10</text></svg><svg x="660"><use xlink:href="#a"/><text y="1.67" class="f">The</text><text x="4.008" y="1.67" class="f">count</text><text x="10.02" y="1.67" class="f">is:</text><text x="14.028" y="1.67" class="f">11</text></svg><svg x="720"><use xlink:href="#a"/><text y="1.67" class="f">The</text><text x="4.008" y="1.67" class="f">count</text><text x="10.02" y="1.67" class="f">is:</text><text x="14.028" y="1.67" class="f">12</text></svg><svg x="780"><use xlink:href="#a"/><text y="1.67" class="f">The</text><text x="4.008" y="1.67" class="f">count</text><text x="10.02" y="1.67" class="f">is:</text><text x="14.028" y="1.67" class="f">13</text></svg><svg x="840"><use xlink:href="#a"/><text y="1.67" class="f">The</text><text x="4.008" y="1.67" class="f">count</text><text x="10.02" y="1.67" class="f">is:</text><text x="14.028" y="1.67" class="f">14</text></svg><svg x="900"><use xlink:href="#a"/><text y="1.67" class="f">The</text><text x="4.008" y="1.67" class="f">count</text><text x="10.02" y="1.67" class="f">is:</text><text x="14.028" y="1.67" class="f">15</text></svg><svg x="960"><use xlink:href="#a"/><text y="1.67" class="f">The</text><text x="4.008" y="1.67" class="f">count</text><text x="10.02" y="1.67" class="f">is:</text><text x="14.028" y="1.67" class="f">16</text></svg><svg x="1020"><use xlink:href="#a"/><text y="1.67" class="f">The</text><text x="4.008" y="1.67" class="f">count</text><text x="10.02" y="1.67" class="f">is:</text><text x="14.028" y="1.67" class="f">17</text></svg><svg x="1080"><use xlink:href="#a"/><text y="1.67" class="f">The</text><text x="4.008" y="1.67" class="f">count</text><text x="10.02" y="1.67" class="f">is:</text><text x="14.028" y="1.67" class="f">18</text></svg><svg x="1140"><use xlink:href="#a"/><text y="1.67" class="f">The</text><text x="4.008" y="1.67" class="f">count</text><text x="10.02" y="1.67" class="f">is:</text><text x="14.028" y="1.67" class="f">19</text></svg><svg x="1200"><use xlink:href="#a"/><use xlink:href="#1"/></svg><svg x="1260"><use xlink:href="#a"/><use xlink:href="#1"/></svg></svg></g></g></svg></svg>