<svg xmlns="http://www.w3.org/2000/svg" xmlns:xlink="http://www.w3.org/1999/xlink" width="640" height="407.36"><rect width="640" height="407.36" rx="5" ry="5" class="a"/><svg y="0%" x="0%"><circle cx="20" cy="20" r="6" fill="#ff5f58"/><circle cx="40" cy="20" r="6" fill="#ffbd2e"/><circle cx="60" cy="20" r="6" fill="#18c132"/></svg><svg height="347.36" viewBox="0 0 60 34.736" width="600" x="15" xmlns="http://www.w3.org/2000/svg" xmlns:xlink="http://www.w3.org/1999/xlink" y="50"><style>@keyframes h{0%{transform:translateX(0)}8.3%{transform:translateX(-60px)}9.4%{transform:translateX(-120px)}10.5%{transform:translateX(-180px)}14.9%{transform:translateX(-240px)}16.1%{transform:translateX(-300px)}17.2%{transform:translateX(-360px)}21.6%{transform:translateX(-420px)}22.7%{transform:translateX(-480px)}23.8%{transform:translateX(-540px)}24.9%{transform:translateX(-600px)}26%{transform:translateX(-660px)}27.1%{transform:translateX(-720px)}28.3%{transform:translateX(-780px)}32.8%{transform:translateX(-840px)}33.4%{transform:translateX(-900px)}35.1%{transform:translateX(-960px)}36.1%{transform:translateX(-1020px)}37.2%{transform:translateX(-1080px)}38.3%{transform:translateX(-1140px)}39.4%{transform:translateX(-1200px)}40%{transform:translateX(-1260px)}41.6%{transform:translateX(-1320px)}42.8%{transform:translateX(-1380px)}43.9%{transform:translateX(-1440px)}44.5%{transform:translateX(-1500px)}46.2%{transform:translateX(-1560px)}46.7%{transform:translateX(-1620px)}47.8%{transform:translateX(-1680px)}48.9%{transform:translateX(-1740px)}50.5%{transform:translateX(-1800px)}61%{transform:translateX(-1860px)}62.2%{transform:translateX(-1920px)}63.3%{transform:translateX(-1980px)}67.6%{transform:translateX(-2040px)}68.7%{transform:translateX(-2100px)}69.8%{transform:translateX(-2160px)}70.9%{transform:translateX(-2220px)}72%{transform:translateX(-2280px)}73.1%{transform:translateX(-2340px)}74.3%{transform:translateX(-2400px)}75.4%{transform:translateX(-2460px)}76.5%{transform:translateX(-2520px)}77.7%{transform:translateX(-2580px)}78.8%{transform:translateX(-2640px)}to{transform:translateX(-2700px)}}.a{fill:#282d35}.f{fill:#b9c0cb;white-space:pre}</style><g font-family="Monaco,Consolas,Menlo,'Bitstream Vera Sans Mono','Powerline Symbols',monospace" font-size="1.67"><defs><symbol id="1"><text y="1.67" class="f">Use</text><text x="4.008" y="1.67" class="f">arrow</text><text x="10.02" y="1.67" class="f">keys</text><text x="15.03" y="1.67" class="f">to</text><text x="18.036" y="1.67" class="f">move</text><text x="23.046" y="1.67" class="f">the</text><text x="27.054" y="1.67" class="f">face.</text><text x="33.066" y="1.67" class="f">Press</text><text x="39.078" y="1.67" class="f">“q”</text><text x="43.086" y="1.67" class="f">to</text><text x="46.092" y="1.67" class="f">exit.</text></symbol><symbol id="2"><text y="1.67" class="f">^_^</text></symbol><symbol id="3"><text x="3.006" y="1.67" class="f">^_^</text></symbol><symbol id="4"><text x="9.018" y="1.67" class="f">^_^</text></symbol><symbol id="5"><text x="10.02" y="1.67" class="f">^_^</text></symbol><symbol id="6"><text x="11.022" y="1.67" class="f">^_^</text></symbol><symbol id="7"><text x="12.024" y="1.67" class="f">^_^</text></symbol><symbol id="8"><text x="13.026" y="1.67" class="f">^_^</text></symbol><symbol id="9"><text x="14.028" y="1.67" class="f">^_^</text></symbol><symbol id="10"><text x="15.03" y="1.67" class="f">^_^</text></symbol><symbol id="11"><text x="16.032" y="1.67" class="f">^_^</text></symbol><symbol id="12"><text x="17.034" y="1.67" class="f">^_^</text></symbol><symbol id="13"><text x="18.036" y="1.67" class="f">^_^</text></symbol><symbol id="14"><text x="19.038" y="1.67" class="f">^_^</text></symbol><symbol id="15"><text x="20.04" y="1.67" class="f">^_^</text></symbol><symbol id="16"><text y="1.67" class="f">Position:</text><text x="10.02" y="1.67" class="f">9,</text><text x="13.026" y="1.67" class="f">7</text><text x="17.034" y="1.67" class="f">World:</text><text x="24.048" y="1.67" class="f">20,</text><text x="28.056" y="1.67" class="f">10</text></symbol><symbol id="a"><path fill="transparent" d="M0 0h60v17H0z"/></symbol></defs><path class="a" d="M0 0h60v34.736H0z"/><g style="animation-duration:9.502087s;animation-iteration-count:infinite;animation-name:h;animation-timing-function:steps(1,end)"><svg width="2760"><svg><use xlink:href="#a"/><use xlink:href="#1"/><text y="3.841" class="f">Position:</text><text x="10.02" y="3.841" class="f">0,</text><text x="13.026" y="3.841" class="f">0</text><text x="17.034" y="3.841" class="f">World:</text><text x="24.048" y="3.841" class="f">20,</text><text x="28.056" y="3.841" class="f">10</text><use xlink:href="#2" y="6.513"/></svg><svg x="60"><use xlink:href="#a"/><use xlink:href="#1"/><text y="3.841" class="f">Position:</text><text x="10.02" y="3.841" class="f">0,</text><text x="13.026" y="3.841" class="f">1</text><text x="17.034" y="3.841" class="f">World:</text><text x="24.048" y="3.841" class="f">20,</text><text x="28.056" y="3.841" class="f">10</text><use xlink:href="#2" y="8.684"/></svg><svg x="120"><use xlink:href="#a"/><use xlink:href="#1"/><text y="3.841" class="f">Position:</text><text x="10.02" y="3.841" class="f">0,</text><text x="13.026" y="3.841" class="f">2</text><text x="17.034" y="3.841" class="f">World:</text><text x="24.048" y="3.841" class="f">20,</text><text x="28.056" y="3.841" class="f">10</text><use xlink:href="#2" y="10.855"/></svg><svg x="180"><use xlink:href="#a"/><use xlink:href="#1"/><text y="3.841" class="f">Position:</text><text x="10.02" y="3.841" class="f">0,</text><text x="13.026" y="3.841" class="f">3</text><text x="17.034" y="3.841" class="f">World:</text><text x="24.048" y="3.841" class="f">20,</text><text x="28.056" y="3.841" class="f">10</text><use xlink:href="#2" y="13.026"/></svg><svg x="240"><use xlink:href="#a"/><use xlink:href="#1"/><text y="3.841" class="f">Position:</text><text x="10.02" y="3.841" class="f">1,</text><text x="13.026" y="3.841" class="f">3</text><text x="17.034" y="3.841" class="f">World:</text><text x="24.048" y="3.841" class="f">20,</text><text x="28.056" y="3.841" class="f">10</text><text x="1.002" y="14.696" class="f">^_^</text></svg><svg x="300"><use xlink:href="#a"/><use xlink:href="#1"/><text y="3.841" class="f">Position:</text><text x="10.02" y="3.841" class="f">2,</text><text x="13.026" y="3.841" class="f">3</text><text x="17.034" y="3.841" class="f">World:</text><text x="24.048" y="3.841" class="f">20,</text><text x="28.056" y="3.841" class="f">10</text><text x="2.004" y="14.696" class="f">^_^</text></svg><svg x="360"><use xlink:href="#a"/><use xlink:href="#1"/><text y="3.841" class="f">Position:</text><text x="10.02" y="3.841" class="f">3,</text><text x="13.026" y="3.841" class="f">3</text><text x="17.034" y="3.841" class="f">World:</text><text x="24.048" y="3.841" class="f">20,</text><text x="28.056" y="3.841" class="f">10</text><use xlink:href="#3" y="13.026"/></svg><svg x="420"><use xlink:href="#a"/><use xlink:href="#1"/><text y="3.841" class="f">Position:</text><text x="10.02" y="3.841" class="f">3,</text><text x="13.026" y="3.841" class="f">4</text><text x="17.034" y="3.841" class="f">World:</text><text x="24.048" y="3.841" class="f">20,</text><text x="28.056" y="3.841" class="f">10</text><use xlink:href="#3" y="15.197"/></svg><svg x="480"><use xlink:href="#a"/><use xlink:href="#1"/><text y="3.841" class="f">Position:</text><text x="10.02" y="3.841" class="f">3,</text><text x="13.026" y="3.841" class="f">5</text><text x="17.034" y="3.841" class="f">World:</text><text x="24.048" y="3.841" class="f">20,</text><text x="28.056" y="3.841" class="f">10</text><use xlink:href="#3" y="17.368"/></svg><svg x="540"><use xlink:href="#a"/><use xlink:href="#1"/><text y="3.841" class="f">Position:</text><text x="10.02" y="3.841" class="f">3,</text><text x="13.026" y="3.841" class="f">6</text><text x="17.034" y="3.841" class="f">World:</text><text x="24.048" y="3.841" class="f">20,</text><text x="28.056" y="3.841" class="f">10</text><use xlink:href="#3" y="19.539"/></svg><svg x="600"><use xlink:href="#a"/><use xlink:href="#1"/><text y="3.841" class="f">Position:</text><text x="10.02" y="3.841" class="f">3,</text><text x="13.026" y="3.841" class="f">7</text><text x="17.034" y="3.841" class="f">World:</text><text x="24.048" y="3.841" class="f">20,</text><text x="28.056" y="3.841" class="f">10</text><use xlink:href="#3" y="21.71"/></svg><svg x="660"><use xlink:href="#a"/><use xlink:href="#1"/><text y="3.841" class="f">Position:</text><text x="10.02" y="3.841" class="f">3,</text><text x="13.026" y="3.841" class="f">8</text><text x="17.034" y="3.841" class="f">World:</text><text x="24.048" y="3.841" class="f">20,</text><text x="28.056" y="3.841" class="f">10</text><use xlink:href="#3" y="23.881"/></svg><svg x="720"><use xlink:href="#a"/><use xlink:href="#1"/><text y="3.841" class="f">Position:</text><text x="10.02" y="3.841" class="f">3,</text><text x="13.026" y="3.841" class="f">9</text><text x="17.034" y="3.841" class="f">World:</text><text x="24.048" y="3.841" class="f">20,</text><text x="28.056" y="3.841" class="f">10</text><use xlink:href="#3" y="26.052"/></svg><svg x="780"><use xlink:href="#a"/><use xlink:href="#1"/><text y="3.841" class="f">Position:</text><text x="10.02" y="3.841" class="f">3,</text><text x="13.026" y="3.841" class="f">10</text><text x="18.036" y="3.841" class="f">World:</text><text x="25.05" y="3.841" class="f">20,</text><text x="29.058" y="3.841" class="f">10</text><use xlink:href="#3" y="28.223"/></svg><svg x="840"><use xlink:href="#a"/><use xlink:href="#1"/><text y="3.841" class="f">Position:</text><text x="10.02" y="3.841" class="f">4,</text><text x="13.026" y="3.841" class="f">10</text><text x="18.036" y="3.841" class="f">World:</text><text x="25.05" y="3.841" class="f">20,</text><text x="29.058" y="3.841" class="f">10</text><text x="4.008" y="29.893" class="f">^_^</text></svg><svg x="900"><use xlink:href="#a"/><use xlink:href="#1"/><text y="3.841" class="f">Position:</text><text x="10.02" y="3.841" class="f">5,</text><text x="13.026" y="3.841" class="f">10</text><text x="18.036" y="3.841" class="f">World:</text><text x="25.05" y="3.841" class="f">20,</text><text x="29.058" y="3.841" class="f">10</text><text x="5.01" y="29.893" class="f">^_^</text></svg><svg x="960"><use xlink:href="#a"/><use xlink:href="#1"/><text y="3.841" class="f">Position:</text><text x="10.02" y="3.841" class="f">6,</text><text x="13.026" y="3.841" class="f">10</text><text x="18.036" y="3.841" class="f">World:</text><text x="25.05" y="3.841" class="f">20,</text><text x="29.058" y="3.841" class="f">10</text><text x="6.012" y="29.893" class="f">^_^</text></svg><svg x="1020"><use xlink:href="#a"/><use xlink:href="#1"/><text y="3.841" class="f">Position:</text><text x="10.02" y="3.841" class="f">7,</text><text x="13.026" y="3.841" class="f">10</text><text x="18.036" y="3.841" class="f">World:</text><text x="25.05" y="3.841" class="f">20,</text><text x="29.058" y="3.841" class="f">10</text><text x="7.014" y="29.893" class="f">^_^</text></svg><svg x="1080"><use xlink:href="#a"/><use xlink:href="#1"/><text y="3.841" class="f">Position:</text><text x="10.02" y="3.841" class="f">8,</text><text x="13.026" y="3.841" class="f">10</text><text x="18.036" y="3.841" class="f">World:</text><text x="25.05" y="3.841" class="f">20,</text><text x="29.058" y="3.841" class="f">10</text><text x="8.016" y="29.893" class="f">^_^</text></svg><svg x="1140"><use xlink:href="#a"/><use xlink:href="#1"/><text y="3.841" class="f">Position:</text><text x="10.02" y="3.841" class="f">9,</text><text x="13.026" y="3.841" class="f">10</text><text x="18.036" y="3.841" class="f">World:</text><text x="25.05" y="3.841" class="f">20,</text><text x="29.058" y="3.841" class="f">10</text><use xlink:href="#4" y="28.223"/></svg><svg x="1200"><use xlink:href="#a"/><use xlink:href="#1"/><text y="3.841" class="f">Position:</text><text x="10.02" y="3.841" class="f">10,</text><text x="14.028" y="3.841" class="f">10</text><text x="19.038" y="3.841" class="f">World:</text><text x="26.052" y="3.841" class="f">20,</text><text x="30.06" y="3.841" class="f">10</text><use xlink:href="#5" y="28.223"/></svg><svg x="1260"><use xlink:href="#a"/><use xlink:href="#1"/><text y="3.841" class="f">Position:</text><text x="10.02" y="3.841" class="f">11,</text><text x="14.028" y="3.841" class="f">10</text><text x="19.038" y="3.841" class="f">World:</text><text x="26.052" y="3.841" class="f">20,</text><text x="30.06" y="3.841" class="f">10</text><use xlink:href="#6" y="28.223"/></svg><svg x="1320"><use xlink:href="#a"/><use xlink:href="#1"/><text y="3.841" class="f">Position:</text><text x="10.02" y="3.841" class="f">12,</text><text x="14.028" y="3.841" class="f">10</text><text x="19.038" y="3.841" class="f">World:</text><text x="26.052" y="3.841" class="f">20,</text><text x="30.06" y="3.841" class="f">10</text><use xlink:href="#7" y="28.223"/></svg><svg x="1380"><use xlink:href="#a"/><use xlink:href="#1"/><text y="3.841" class="f">Position:</text><text x="10.02" y="3.841" class="f">13,</text><text x="14.028" y="3.841" class="f">10</text><text x="19.038" y="3.841" class="f">World:</text><text x="26.052" y="3.841" class="f">20,</text><text x="30.06" y="3.841" class="f">10</text><use xlink:href="#8" y="28.223"/></svg><svg x="1440"><use xlink:href="#a"/><use xlink:href="#1"/><text y="3.841" class="f">Position:</text><text x="10.02" y="3.841" class="f">14,</text><text x="14.028" y="3.841" class="f">10</text><text x="19.038" y="3.841" class="f">World:</text><text x="26.052" y="3.841" class="f">20,</text><text x="30.06" y="3.841" class="f">10</text><use xlink:href="#9" y="28.223"/></svg><svg x="1500"><use xlink:href="#a"/><use xlink:href="#1"/><text y="3.841" class="f">Position:</text><text x="10.02" y="3.841" class="f">15,</text><text x="14.028" y="3.841" class="f">10</text><text x="19.038" y="3.841" class="f">World:</text><text x="26.052" y="3.841" class="f">20,</text><text x="30.06" y="3.841" class="f">10</text><use xlink:href="#10" y="28.223"/></svg><svg x="1560"><use xlink:href="#a"/><use xlink:href="#1"/><text y="3.841" class="f">Position:</text><text x="10.02" y="3.841" class="f">16,</text><text x="14.028" y="3.841" class="f">10</text><text x="19.038" y="3.841" class="f">World:</text><text x="26.052" y="3.841" class="f">20,</text><text x="30.06" y="3.841" class="f">10</text><use xlink:href="#11" y="28.223"/></svg><svg x="1620"><use xlink:href="#a"/><use xlink:href="#1"/><text y="3.841" class="f">Position:</text><text x="10.02" y="3.841" class="f">17,</text><text x="14.028" y="3.841" class="f">10</text><text x="19.038" y="3.841" class="f">World:</text><text x="26.052" y="3.841" class="f">20,</text><text x="30.06" y="3.841" class="f">10</text><use xlink:href="#12" y="28.223"/></svg><svg x="1680"><use xlink:href="#a"/><use xlink:href="#1"/><text y="3.841" class="f">Position:</text><text x="10.02" y="3.841" class="f">18,</text><text x="14.028" y="3.841" class="f">10</text><text x="19.038" y="3.841" class="f">World:</text><text x="26.052" y="3.841" class="f">20,</text><text x="30.06" y="3.841" class="f">10</text><use xlink:href="#13" y="28.223"/></svg><svg x="1740"><use xlink:href="#a"/><use xlink:href="#1"/><text y="3.841" class="f">Position:</text><text x="10.02" y="3.841" class="f">19,</text><text x="14.028" y="3.841" class="f">10</text><text x="19.038" y="3.841" class="f">World:</text><text x="26.052" y="3.841" class="f">20,</text><text x="30.06" y="3.841" class="f">10</text><use xlink:href="#14" y="28.223"/></svg><svg x="1800"><use xlink:href="#a"/><use xlink:href="#1"/><text y="3.841" class="f">Position:</text><text x="10.02" y="3.841" class="f">20,</text><text x="14.028" y="3.841" class="f">10</text><text x="19.038" y="3.841" class="f">World:</text><text x="26.052" y="3.841" class="f">20,</text><text x="30.06" y="3.841" class="f">10</text><use xlink:href="#15" y="28.223"/></svg><svg x="1860"><use xlink:href="#a"/><use xlink:href="#1"/><text y="3.841" class="f">Position:</text><text x="10.02" y="3.841" class="f">20,</text><text x="14.028" y="3.841" class="f">9</text><text x="18.036" y="3.841" class="f">World:</text><text x="25.05" y="3.841" class="f">20,</text><text x="29.058" y="3.841" class="f">10</text><use xlink:href="#15" y="26.052"/></svg><svg x="1920"><use xlink:href="#a"/><use xlink:href="#1"/><text y="3.841" class="f">Position:</text><text x="10.02" y="3.841" class="f">20,</text><text x="14.028" y="3.841" class="f">8</text><text x="18.036" y="3.841" class="f">World:</text><text x="25.05" y="3.841" class="f">20,</text><text x="29.058" y="3.841" class="f">10</text><use xlink:href="#15" y="23.881"/></svg><svg x="1980"><use xlink:href="#a"/><use xlink:href="#1"/><text y="3.841" class="f">Position:</text><text x="10.02" y="3.841" class="f">20,</text><text x="14.028" y="3.841" class="f">7</text><text x="18.036" y="3.841" class="f">World:</text><text x="25.05" y="3.841" class="f">20,</text><text x="29.058" y="3.841" class="f">10</text><use xlink:href="#15" y="21.71"/></svg><svg x="2040"><use xlink:href="#a"/><use xlink:href="#1"/><text y="3.841" class="f">Position:</text><text x="10.02" y="3.841" class="f">19,</text><text x="14.028" y="3.841" class="f">7</text><text x="18.036" y="3.841" class="f">World:</text><text x="25.05" y="3.841" class="f">20,</text><text x="29.058" y="3.841" class="f">10</text><use xlink:href="#14" y="21.71"/></svg><svg x="2100"><use xlink:href="#a"/><use xlink:href="#1"/><text y="3.841" class="f">Position:</text><text x="10.02" y="3.841" class="f">18,</text><text x="14.028" y="3.841" class="f">7</text><text x="18.036" y="3.841" class="f">World:</text><text x="25.05" y="3.841" class="f">20,</text><text x="29.058" y="3.841" class="f">10</text><use xlink:href="#13" y="21.71"/></svg><svg x="2160"><use xlink:href="#a"/><use xlink:href="#1"/><text y="3.841" class="f">Position:</text><text x="10.02" y="3.841" class="f">17,</text><text x="14.028" y="3.841" class="f">7</text><text x="18.036" y="3.841" class="f">World:</text><text x="25.05" y="3.841" class="f">20,</text><text x="29.058" y="3.841" class="f">10</text><use xlink:href="#12" y="21.71"/></svg><svg x="2220"><use xlink:href="#a"/><use xlink:href="#1"/><text y="3.841" class="f">Position:</text><text x="10.02" y="3.841" class="f">16,</text><text x="14.028" y="3.841" class="f">7</text><text x="18.036" y="3.841" class="f">World:</text><text x="25.05" y="3.841" class="f">20,</text><text x="29.058" y="3.841" class="f">10</text><use xlink:href="#11" y="21.71"/></svg><svg x="2280"><use xlink:href="#a"/><use xlink:href="#1"/><text y="3.841" class="f">Position:</text><text x="10.02" y="3.841" class="f">15,</text><text x="14.028" y="3.841" class="f">7</text><text x="18.036" y="3.841" class="f">World:</text><text x="25.05" y="3.841" class="f">20,</text><text x="29.058" y="3.841" class="f">10</text><use xlink:href="#10" y="21.71"/></svg><svg x="2340"><use xlink:href="#a"/><use xlink:href="#1"/><text y="3.841" class="f">Position:</text><text x="10.02" y="3.841" class="f">14,</text><text x="14.028" y="3.841" class="f">7</text><text x="18.036" y="3.841" class="f">World:</text><text x="25.05" y="3.841" class="f">20,</text><text x="29.058" y="3.841" class="f">10</text><use xlink:href="#9" y="21.71"/></svg><svg x="2400"><use xlink:href="#a"/><use xlink:href="#1"/><text y="3.841" class="f">Position:</text><text x="10.02" y="3.841" class="f">13,</text><text x="14.028" y="3.841" class="f">7</text><text x="18.036" y="3.841" class="f">World:</text><text x="25.05" y="3.841" class="f">20,</text><text x="29.058" y="3.841" class="f">10</text><use xlink:href="#8" y="21.71"/></svg><svg x="2460"><use xlink:href="#a"/><use xlink:href="#1"/><text y="3.841" class="f">Position:</text><text x="10.02" y="3.841" class="f">12,</text><text x="14.028" y="3.841" class="f">7</text><text x="18.036" y="3.841" class="f">World:</text><text x="25.05" y="3.841" class="f">20,</text><text x="29.058" y="3.841" class="f">10</text><use xlink:href="#7" y="21.71"/></svg><svg x="2520"><use xlink:href="#a"/><use xlink:href="#1"/><text y="3.841" class="f">Position:</text><text x="10.02" y="3.841" class="f">11,</text><text x="14.028" y="3.841" class="f">7</text><text x="18.036" y="3.841" class="f">World:</text><text x="25.05" y="3.841" class="f">20,</text><text x="29.058" y="3.841" class="f">10</text><use xlink:href="#6" y="21.71"/></svg><svg x="2580"><use xlink:href="#a"/><use xlink:href="#1"/><text y="3.841" class="f">Position:</text><text x="10.02" y="3.841" class="f">10,</text><text x="14.028" y="3.841" class="f">7</text><text x="18.036" y="3.841" class="f">World:</text><text x="25.05" y="3.841" class="f">20,</text><text x="29.058" y="3.841" class="f">10</text><use xlink:href="#5" y="21.71"/></svg><svg x="2640"><use xlink:href="#a"/><use xlink:href="#1"/><use xlink:href="#16" y="2.171"/><use xlink:href="#4" y="21.71"/></svg><svg x="2700"><use xlink:href="#a"/><use xlink:href="#1"/><use xlink:href="#16" y="2.171"/><use xlink:href="#4" y="21.71"/></svg></svg></g></g></svg></svg>