<svg xmlns="http://www.w3.org/2000/svg" xmlns:xlink="http://www.w3.org/1999/xlink" viewBox="0 0 512 512"><linearGradient id="a" x1="0" x2="512" y1="-12402" y2="-12402" gradientTransform="matrix(1 0 0 -1 0 -12146)" gradientUnits="userSpaceOnUse"><stop offset="0" stop-color="#9AB3FF"/><stop offset="1" stop-color="#FC5C7D"/></linearGradient><path fill="url(#a)" d="m512 256c0 141.386719-114.613281 256-256 256s-256-114.613281-256-256 114.613281-256 256-256 256 114.613281 256 256zm0 0"/><g fill="#fff"><path d="m256 56c-110.28125 0-200 89.71875-200 200s89.71875 200 200 200 200-89.71875 200-200-89.71875-200-200-200zm0 370c-93.738281 0-170-76.261719-170-170s76.261719-170 170-170 170 76.261719 170 170-76.261719 170-170 170zm0 0"/><path d="m324.179688 187.820312c-5.859376-5.855468-15.355469-5.855468-21.214844 0l-46.964844 46.964844-46.964844-46.964844c-5.859375-5.855468-15.355468-5.855468-21.214844 0-5.855468 5.859376-5.855468 15.355469 0 21.214844l46.964844 46.964844-46.964844 46.964844c-5.855468 5.859375-5.855468 15.355468 0 21.214844 2.929688 2.929687 6.769532 4.394531 10.605469 4.394531 3.839844 0 7.679688-1.464844 10.605469-4.394531l46.96875-46.964844 46.964844 46.964844c2.929687 2.929687 6.769531 4.394531 10.605468 4.394531 3.839844 0 7.679688-1.464844 10.609376-4.394531 5.855468-5.859376 5.855468-15.355469 0-21.214844l-46.964844-46.964844 46.964844-46.964844c5.855468-5.859375 5.855468-15.355468 0-21.214844zm0 0"/></g></svg>