<?xml version="1.0" encoding="UTF-8" standalone="no"?>
<svg width="1477px" height="500px" viewBox="0 0 1477 500" version="1.1" xmlns="http://www.w3.org/2000/svg" xmlns:xlink="http://www.w3.org/1999/xlink" xmlns:sketch="http://www.bohemiancoding.com/sketch/ns">
    <!-- Generator: Sketch 3.1.1 (8761) - http://www.bohemiancoding.com/sketch -->
    <title>Play Store</title>
    <desc>Created with Sketch.</desc>
    <defs>
        <linearGradient x1="58.9170878%" y1="9.59026547%" x2="90.8103723%" y2="60.8514694%" id="linearGradient-1">
            <stop stop-color="#FF177B" offset="0%"></stop>
            <stop stop-color="#FFEC73" offset="100%"></stop>
        </linearGradient>
        <linearGradient x1="37.1029741%" y1="-44.0352456%" x2="0%" y2="101.060094%" id="linearGradient-2">
            <stop stop-color="#064AA2" offset="0%"></stop>
            <stop stop-color="#63FFD4" offset="100%"></stop>
        </linearGradient>
        <path id="path-3" d="M139,127 L5,0 C1.87378254,0.726186853 0,3.06462999 0,7 L0,127 L0,250 C0,253.338867 1.34597157,255.325411 3,256 L139,127 Z"></path>
        <path id="path-5" d="M5.53437056,127.785198 L82.986448,85.238085 C102.059222,74.6695888 117.195851,66.282093 117.195851,66.282093 L173.520199,35.9446714 L136.02203,-0.492035149 L0.0236165533,128.524017 C1.53944448,129.011528 4.21113604,128.745054 6.29548251,127.716318"></path>
        <linearGradient x1="78.6453125%" y1="50%" x2="2.49516972%" y2="100%" id="linearGradient-7">
            <stop stop-color="#FF4521" offset="0%"></stop>
            <stop stop-color="#8A33DB" offset="100%"></stop>
        </linearGradient>
        <linearGradient x1="0%" y1="-24.1863374%" x2="64.2244373%" y2="100%" id="linearGradient-8">
            <stop stop-color="#00A3B5" offset="0%"></stop>
            <stop stop-color="#D6FFA1" offset="100%"></stop>
        </linearGradient>
        <path id="path-9" d="M7.12902383,1.14687426 C4.54941065,-0.234702829 1.98636664,-0.629922435 -0.0869650899,-0.07134193 L134.024287,127.113403 L171.126971,92.0020155 L115.2,61.0225581 C115.2,61.0225581 62.4870167,31.817123 30.6586078,14.1823037 L7.12902383,1.14687426 Z"></path>
    </defs>
    <g id="Page-1" stroke="none" stroke-width="1" fill="none" fill-rule="evenodd" sketch:type="MSPage">
        <g id="Artboard-1" sketch:type="MSArtboardGroup" transform="translate(-461.000000, -270.000000)">
            <g id="Play-Store" sketch:type="MSLayerGroup" transform="translate(461.000000, 270.000000)">
                <rect id="background" fill="#000000" sketch:type="MSShapeGroup" x="0" y="0" width="1477" height="500" rx="60"></rect>
                <g id="icon" transform="translate(60.000000, 179.000000)">
                    <path d="M120.179253,61.0225581 C120.179253,61.0225581 18.2738589,4.56224806 12.2887967,1.24515504 C6.29377593,-2.07193798 0.328630705,-0.0597674419 0.328630705,6.87325581 L0.328630705,127.404264 L0.328630705,250.385736 C0.328630705,255.575543 4.59087137,257.826783 9.79917012,254.947984 C14.9975104,252.069186 120.179253,193.785969 120.179253,193.785969 C120.179253,193.785969 134.46801,185.873586 141.612388,181.917395 C153.110334,175.550421 176.106224,162.816473 176.106224,162.816473 C176.106224,162.816473 223.558506,136.518798 229.872199,133.032364 C236.175934,129.535969 235.568465,124.744612 230.250622,121.985349 C224.922822,119.236047 176.106224,92.0020155 176.106224,92.0020155 L120.179253,61.0225581 Z" id="orange" fill="url(#linearGradient-1)" sketch:type="MSShapeGroup"></path>
                    <g id="blue">
                        <mask id="mask-4" sketch:name="Clip 2" fill="white">
                            <use xlink:href="#path-3"></use>
                        </mask>
                        <use id="Clip-2" fill="url(#linearGradient-2)" sketch:type="MSShapeGroup" xlink:href="#path-3"></use>
                        <path d="M176,92 L120,61 C119.803881,61.451092 17.9382297,4.88708221 12,2 C5.96281885,-1.75928874 0,0.256577526 0,7 L0,128 C0,127.95472 0,245.952753 0,251 C0,256.361409 4.26057841,258.616784 9,256 C14.6631589,252.848612 119.803881,194.458347 120,194 L176,163 C175.709041,163.43197 223.142817,137.085995 229,134 C235.755324,130.09034 235.148092,125.290184 230,123 C224.5066,119.7715 175.709041,92.4874489 176,92" id="Fill-1" sketch:type="MSShapeGroup" mask="url(#mask-4)"></path>
                    </g>
                    <g id="red" transform="translate(2.983402, 127.503876)">
                        <mask id="mask-6" sketch:name="Clip 8" fill="white">
                            <use xlink:href="#path-5"></use>
                        </mask>
                        <g id="Clip-8"></g>
                        <path d="M117.016598,-66.503876 C116.820479,-66.0527839 14.9548272,-122.616794 9.01659751,-125.503876 C2.97941636,-129.263165 -2.98340249,-127.247298 -2.98340249,-120.503876 L-2.98340249,0.496124031 C-2.98340249,0.450843681 -2.98340249,118.448877 -2.98340249,123.496124 C-2.98340249,128.857533 1.27717592,131.112908 6.01659751,128.496124 C11.6797564,125.344736 116.820479,66.9544713 117.016598,66.496124 L173.016598,35.496124 C172.725639,35.928094 220.159415,9.58211908 226.016598,6.49612403 C232.771921,2.58646438 232.164689,-2.21369242 227.016598,-4.50387597 C221.523198,-7.73237581 172.725639,-35.0164271 173.016598,-35.503876 L117.016598,-66.503876 Z" id="Fill-7" fill="url(#linearGradient-7)" sketch:type="MSShapeGroup" mask="url(#mask-6)"></path>
                    </g>
                    <g id="green" transform="translate(4.979253, 0.000000)">
                        <mask id="mask-10" sketch:name="Clip 5" fill="white">
                            <use xlink:href="#path-9"></use>
                        </mask>
                        <use id="Clip-5" fill="url(#linearGradient-8)" sketch:type="MSShapeGroup" xlink:href="#path-9"></use>
                        <path d="M171.020747,92 L115.020747,61 C114.824628,61.451092 12.9589766,4.88708221 7.02074689,2 C0.983565743,-1.75928874 -4.97925311,0.256577526 -4.97925311,7 L-4.97925311,128 C-4.97925311,127.95472 -4.97925311,245.952753 -4.97925311,251 C-4.97925311,256.361409 -0.718674698,258.616784 4.02074689,256 C9.68390577,252.848612 114.824628,194.458347 115.020747,194 L171.020747,163 C170.729788,163.43197 218.163564,137.085995 224.020747,134 C230.776071,130.09034 230.168839,125.290184 225.020747,123 C219.527347,119.7715 170.729788,92.4874489 171.020747,92" id="Fill-4" sketch:type="MSShapeGroup" mask="url(#mask-10)"></path>
                    </g>
                </g>
                <g id="Google-play" transform="translate(347.000000, 201.000000)" fill="#FFFFFF" sketch:type="MSShapeGroup">
                    <path d="M664.61527,147.869801 L653.541573,158.380368 C650.98241,159.79512 648.436969,161.437612 645.898389,162.603919 C638.207178,166.116643 630.385607,167 623.435387,167 C616.0392,167 604.444065,166.516914 592.615654,157.911085 C576.183495,146.268716 569,126.255161 569,108.815762 C569,72.7085464 598.221113,55 622.056321,55 C630.385607,55 638.941308,57.0979728 645.898389,61.5216588 C657.46608,69.216526 660.457488,79.2164027 662.117856,84.5717543 L607.68933,106.690184 L589.864383,108.084232 C595.634506,137.690492 615.545206,154.909052 637.548519,154.909052 C648.539884,154.909052 656.697645,151.29971 664.183025,147.579949 C664.183025,147.579949 665.68559,146.79321 664.61527,147.869801 L664.61527,147.869801 Z M631.359496,88.4775359 C635.727713,86.8517832 638,85.4483557 638,82.1829551 C638,72.8175081 627.656008,62 615.311047,62 C606.167636,62 589,69.295044 589,94.6262158 C589,98.5794349 589.46124,102.789717 589.69186,107 L631.359496,88.4775359 L631.359496,88.4775359 Z" id="Fill-1"></path>
                    <path d="M551.026121,146.60314 C551.026121,155.628579 552.626345,157.032995 560.210314,157.742087 C564.163004,158.210226 568.102018,158.416758 572,158.884896 L563.465471,164 L522.796525,164 C528.130605,157.032995 529.046973,156.337671 529.046973,151.69759 L529.046973,146.513643 L528.958072,8.38519016 L511,8.38519016 L528.287892,0 L561.290807,0 C554.137668,4.1719419 551.997197,6.71228276 551.08083,14.8427504 L551.026121,146.60314" id="Fill-2"></path>
                    <path d="M487.929114,66.39776 C493.220316,70.782492 504.260152,80.0888621 504.260152,97.7379249 C504.260152,114.939566 494.640406,123.048223 484.938732,130.723225 C481.962004,133.745042 478.480052,137.021545 478.480052,142.087734 C478.480052,147.229641 481.962004,150.017422 484.467644,152.096212 L492.790192,158.573501 C502.908335,167.184646 512.132095,175.079918 512.132095,191.118262 C512.132095,212.966205 491.158454,235 451.525647,235 C418.139872,235 402,218.968539 402,201.780664 C402,193.417321 406.130551,181.570973 419.757955,173.455433 C434.040786,164.651552 453.389516,163.474489 463.753443,162.786148 C460.517276,158.573501 456.823676,154.161235 456.823676,146.961188 C456.823676,143.023878 457.997981,140.676635 459.131323,137.909505 C456.612028,138.150424 454.072251,138.398227 451.764605,138.398227 C427.329494,138.398227 413.517751,120.019522 413.517751,101.909271 C413.517751,91.2262192 418.35152,79.3729875 428.278497,70.782492 C441.414332,59.8791709 457.076288,58 469.52256,58 L517,58 L502.239254,66.39776 L487.929114,66.39776 L487.929114,66.39776 Z M471.720106,169.252274 C469.813618,169 468.671102,169 466.372304,169 C464.26622,169 451.719189,169.462503 442.000918,172.784116 C436.859594,174.697197 422,180.352348 422,197.149619 C422,213.911851 438.043406,226 462.862164,226 C485.161879,226 497,215.117163 497,200.464224 C497,188.404106 489.339635,182.041185 471.720106,169.252274 L471.720106,169.252274 Z M478.235214,124.515284 C483.537729,119.169682 484,111.786026 484,107.593263 C484,90.9388646 474.163154,65 455.094494,65 C449.146159,65 442.701564,68.0124766 439.044188,72.6718653 C435.162475,77.4959451 434,83.7542109 434,89.7723019 C434,105.280724 442.959891,131 462.667573,131 C468.418763,131 474.605031,128.179663 478.235214,124.515284 L478.235214,124.515284 Z" id="Fill-3"></path>
                    <path d="M344.336863,167 C307.636483,167 288,138.048704 288,111.8352 C288,81.2065722 312.685864,55 347.798905,55 C381.741968,55 403,81.9204778 403,110.185593 C403,137.792252 381.988279,167 344.336863,167 L344.336863,167 Z M373.038446,148.065395 C378.640643,140.558479 380,131.188737 380,122.055323 C380,101.397404 370.278541,62 341.546685,62 C333.905453,62 326.209298,65.0236187 320.662024,69.9587205 C311.613378,78.1676715 310,88.4827293 310,98.6031633 C310,121.777289 321.314241,160 349.39388,160 C358.456257,160 367.704002,155.558408 373.038446,148.065395 L373.038446,148.065395 Z" id="Fill-4"></path>
                    <path d="M221.332956,167 C184.61044,167 165,138.048704 165,111.8352 C165,81.2065722 189.702994,55 224.816975,55 C258.753646,55 280,81.9204778 280,110.185593 C280,137.792252 259.006904,167 221.332956,167 L221.332956,167 Z M250.048769,148.065395 C255.612501,140.558479 257,131.188737 257,122.055323 C257,101.397404 247.246296,62 218.527819,62 C210.855363,62 203.237857,65.0236187 197.674124,69.9587205 C188.607301,78.1676715 187,88.4827293 187,98.6031633 C187,121.777289 198.367874,160 226.413208,160 C235.459425,160 244.697969,155.558408 250.048769,148.065395 L250.048769,148.065395 Z" id="Fill-5"></path>
                    <path d="M149.774985,160.080409 L118.688962,167.244878 C106.093764,169.24346 94.7835087,171 82.8067322,171 C22.8472645,171 0,126.581676 0,91.8174048 C0,49.3630858 32.3709663,10 87.8090806,10 C99.5384883,10 110.821258,11.7357931 121.100809,14.5573214 C137.392798,19.1630514 145.013134,24.8406855 149.774985,28.1670461 L131.717057,45.4281603 L124.103592,47.1432069 L129.531965,38.4365792 C122.179612,31.2098707 108.663651,17.869851 83.0128729,17.869851 C48.7179264,17.869851 22.8472645,44.1072978 22.8472645,82.4123105 C22.8472645,123.552682 52.3872315,162.251879 99.7652431,162.251879 C113.686614,162.251879 120.85344,159.437266 127.360616,156.809372 L127.360616,121.540269 L94.5361399,123.317555 L111.934418,113.912461 L158,113.912461 L152.365487,119.368799 C150.846917,120.668915 150.640776,121.111507 150.214752,122.854216 C149.987997,124.845883 149.774985,131.180491 149.774985,133.407285 L149.774985,160.080409" id="Fill-6"></path>
                    <path d="M731.702413,148.939774 L731.702413,208 L720,208 L720,57.714228 L731.702413,57.714228 L731.702413,74.8310428 C739.325778,63.7679871 753.256243,55 769.435327,55 C798.454844,55 818,77.0642684 818,111.991916 C818,146.685934 798.454844,169.21059 769.435327,169.21059 C754.161175,169.21059 740.47751,161.315279 731.702413,148.939774 L731.702413,148.939774 Z M806,112.892369 C806,86.2901677 792.258322,66 767.892133,66 C752.760461,66 738.289381,77.9991135 732,88.4636182 L732,137.078082 C738.289381,147.563419 752.760461,160 767.892133,160 C792.258322,160 806,139.536234 806,112.892369 L806,112.892369 Z" id="Fill-7"></path>
                    <path d="M834,16 L846,16 L846,167 L834,167 L834,16 Z" id="Fill-8"></path>
                    <path d="M976.463271,197.601096 C978.96572,198.721396 983.237023,199.408697 985.945152,199.408697 C993.10284,199.408697 998.087169,196.473923 1002.56415,186.109429 L1011.0999,166.720677 L965,57 L978.053869,57 L1017.59941,152.081173 L1056.76102,57 L1070,57 L1013.77375,189.74525 C1007.93928,203.422533 998.75906,210 986.150833,210 C982.366308,210 977.375122,209.326445 974.454456,208.426081 L976.463271,197.601096" id="Fill-9"></path>
                    <path d="M943.4375,166.851012 C942.651468,163.057462 942.058496,159.713056 941.62411,156.921445 C941.265569,154.136744 941.058719,151.289853 941.058719,148.394593 C937.025133,154.330222 931.309164,159.270821 924.00734,163.16111 C916.698621,167.07904 909.755338,169 900.233319,169 C888.766904,169 879.865436,166.173839 873.515125,160.438599 C867.185498,154.710268 864,146.950418 864,137.13141 C864,127.326221 868.612767,119.365984 877.810721,113.278337 C887.008674,107.16305 898.895685,104.122682 913.609653,104.122682 L941.058719,104.122682 L941.058719,90.5308522 C941.058719,82.7019033 938.397242,76.545157 933.081183,72.0813432 C927.74444,67.6106195 920.25645,65.3510729 910.548265,65.3510729 C901.674377,65.3510729 894.475979,67.4171415 888.99444,71.4387198 C883.561165,75.5432174 880.823843,80.6289247 880.823843,86.7580313 L868.778247,86.7580313 L868.530027,86.1706874 C868.095641,77.9064129 871.867215,70.6578979 879.886121,64.3975027 C887.870552,58.1440175 898.330294,55 911.203292,55 C924.03492,55 934.418817,58.095648 942.244662,64.273124 C950.063612,70.3884107 953.986877,79.2262092 953.986877,90.7796096 L953.986877,144.746151 C953.986877,148.622621 954.173043,152.367802 954.655694,156.016244 C955.152135,159.671597 955.945062,163.320039 957,166.851012 L943.4375,166.851012 L943.4375,166.851012 Z M901.6493,159 C911.638536,159 918.817008,156.749653 926.153929,152.297577 C933.442626,147.873283 938.402799,142.101559 941,135.11437 L941,114 L913.443488,114 C902.9169,114 894.202153,116.347585 887.34747,121.084427 C880.47901,125.807378 877,131.523538 877,138.170397 C877,144.442198 879.204521,149.456861 883.586006,153.256058 C887.98127,157.096929 893.98859,159 901.6493,159 L901.6493,159 Z" id="Fill-10"></path>
                </g>
                <g id="Get-it-on" transform="translate(343.000000, 80.000000)" fill="#FFFFFF" sketch:type="MSShapeGroup">
                    <path d="M0.0424710425,35.3110072 C0.0424710425,13.770941 17.2432432,-0.0849420849 38.6322691,-0.0849420849 C52.9673941,-0.0849420849 62.3427449,6.27902272 68.1842566,14.0721558 L57.7136224,19.7183321 C53.7458031,14.584862 46.7952307,10.592163 38.6322691,10.592163 C24.0835984,10.592163 13.2754239,20.8462856 13.2754239,35.3110072 C13.2754239,49.5642375 24.0835984,60.0298513 38.6322691,60.0298513 C46.1339275,60.0298513 52.7469597,56.8510733 56.0534758,53.8773778 L56.0534758,43.3092227 L34.0031466,43.3092227 L34.0031466,32.7410677 L68.8455598,32.7410677 L68.8455598,58.2866505 C61.6814417,65.7785688 51.314136,70.8030888 38.6322691,70.8030888 C17.2432432,70.8030888 0.0424710425,56.7549409 0.0424710425,35.3110072" id="Fill-1"></path>
                    <path d="M85.5250965,69.7606178 L85.5250965,0.957528958 L136.606178,0.957528958 L136.606178,11.5902064 L98.6043672,11.5902064 L98.6043672,29.3242234 L135.824075,29.3242234 L135.824075,39.9504568 L98.6043672,39.9504568 L98.6043672,59.1343844 L136.606178,59.1343844 L136.606178,69.7606178 L85.5250965,69.7606178" id="Fill-2"></path>
                    <path d="M171.344753,69.7606178 L171.344753,11.5902064 L149.11583,11.5902064 L149.11583,0.957528958 L206.451737,0.957528958 L206.451737,11.5902064 L184.222815,11.5902064 L184.222815,69.7606178 L171.344753,69.7606178" id="Fill-3"></path>
                    <path d="M252.320463,0.957528958 L264.830116,0.957528958 L264.830116,69.7606178 L252.320463,69.7606178 L252.320463,0.957528958 Z" id="Fill-4"></path>
                    <path d="M300.618038,69.7606178 L300.618038,11.5902064 L278.382239,11.5902064 L278.382239,0.957528958 L335.718147,0.957528958 L335.718147,11.5902064 L313.496099,11.5902064 L313.496099,69.7606178 L300.618038,69.7606178" id="Fill-5"></path>
                    <path d="M378.459459,35.3622824 C378.459459,14.9141822 394.192589,-0.0849420849 416.513138,-0.0849420849 C438.708213,-0.0849420849 454.559846,14.9141822 454.559846,35.3622824 C454.559846,55.8039645 438.708213,70.8030888 416.513138,70.8030888 C394.192589,70.8030888 378.459459,55.8039645 378.459459,35.3622824 L378.459459,35.3622824 Z M441.007722,34.8378378 C441.007722,20.807183 431.367775,10.3397683 416.513115,10.3397683 C401.547651,10.3397683 392.011583,20.807183 392.011583,34.8378378 C392.011583,48.7605157 401.547651,59.3359073 416.513115,59.3359073 C431.367775,59.3359073 441.007722,48.7605157 441.007722,34.8378378 L441.007722,34.8378378 Z" id="Fill-6"></path>
                    <path d="M520.311577,69.7606178 L482.021048,20.5603196 L482.021048,69.7606178 L469.15444,69.7606178 L469.15444,0.957528958 L482.357834,0.957528958 L519.871693,48.6176999 L519.871693,0.957528958 L532.745174,0.957528958 L532.745174,69.7606178 L520.311577,69.7606178" id="Fill-7"></path>
                </g>
            </g>
        </g>
    </g>
</svg>