<?xml version="1.0" encoding="iso-8859-1"?>
<!-- Generator: Adobe Illustrator 19.0.0, SVG Export Plug-In . SVG Version: 6.00 Build 0)  -->
<svg version="1.1" id="Capa_1" xmlns="http://www.w3.org/2000/svg" xmlns:xlink="http://www.w3.org/1999/xlink" x="0px" y="0px"
	 viewBox="0 0 511.999 511.999" style="enable-background:new 0 0 511.999 511.999;" xml:space="preserve">
<g>
	<g>
		<path d="M225.773,0.616C101.283,0.616,0,101.622,0,225.773s101.284,225.157,225.773,225.157s225.774-101.006,225.774-225.157
			S350.263,0.616,225.773,0.616z M225.773,413.917c-104.084,0-188.761-84.406-188.761-188.145
			c0-103.745,84.677-188.145,188.761-188.145s188.761,84.4,188.761,188.145C414.535,329.511,329.858,413.917,225.773,413.917z"/>
	</g>
</g>
<g>
	<g>
		<path d="M506.547,479.756L385.024,358.85c-7.248-7.205-18.963-7.174-26.174,0.068c-7.205,7.248-7.174,18.962,0.068,26.174
			l121.523,120.906c3.615,3.59,8.328,5.385,13.053,5.385c4.756,0,9.506-1.82,13.121-5.453
			C513.82,498.681,513.789,486.967,506.547,479.756z"/>
	</g>
</g>
<g>
</g>
<g>
</g>
<g>
</g>
<g>
</g>
<g>
</g>
<g>
</g>
<g>
</g>
<g>
</g>
<g>
</g>
<g>
</g>
<g>
</g>
<g>
</g>
<g>
</g>
<g>
</g>
<g>
</g>
</svg>
