<svg id="reg" enable-background="new 0 0 24 24" height="512" viewBox="0 0 24 24" width="512" xmlns="http://www.w3.org/2000/svg"><circle cx="12" cy="12" fill="#4caf50" r="11.106"/><path d="m17.672 16.718c-3.232-2.129-7.295-2.646-12.076-1.532-.96.223-.636 1.68.34 1.461 7.692-1.788 10.547 1.448 11.323 1.448.742-.001 1.033-.968.413-1.377z"/><path d="m5.257 12.896c4.301-1.018 9.184-.426 12.744 1.542.866.479 1.592-.834.726-1.312-3.875-2.142-9.167-2.788-13.815-1.689-.964.227-.623 1.686.345 1.459z"/><path d="m4.689 8.994c4.53-1.386 10.885-.626 14.469 1.73.823.541 1.654-.708.824-1.253-3.98-2.617-10.742-3.438-15.732-1.912-.952.291-.504 1.726.439 1.435z"/><path d="m12 24c6.617 0 12-5.383 12-12s-5.383-12-12-12-12 5.383-12 12 5.383 12 12 12zm0-22.5c5.79 0 10.5 4.71 10.5 10.5s-4.71 10.5-10.5 10.5-10.5-4.71-10.5-10.5 4.71-10.5 10.5-10.5z"/></svg>